HIERARCHY
ROOT pelvis
{
	OFFSET 0.003123 -0.351407 0.012037
	CHANNELS 6 Xposition Yposition Zposition Zrotation Yrotation Xrotation 
	JOINT left_hip
	{
		OFFSET 0.058189 -0.092763 -0.026001
		CHANNELS 3 Zrotation Yrotation Xrotation
		JOINT left_knee
		{
			OFFSET 0.054695 -0.378753 -0.009396
			CHANNELS 3 Zrotation Yrotation Xrotation
			JOINT left_ankle
			{
				OFFSET -0.043453 -0.403059 -0.031876
				CHANNELS 3 Zrotation Yrotation Xrotation
				JOINT left_foot
				{
					OFFSET 0.047257 -0.057997 0.118216
					CHANNELS 3 Zrotation Yrotation Xrotation
					End Site
					{
						OFFSET 0.000000 0.000000 0.000000
					}
				}
			}
		}
	}
	JOINT right_hip
	{
		OFFSET -0.063267 -0.103908 -0.021250
		CHANNELS 3 Zrotation Yrotation Xrotation
		JOINT right_knee
		{
			OFFSET -0.044210 -0.362380 -0.016824
			CHANNELS 3 Zrotation Yrotation Xrotation
			JOINT right_ankle
			{
				OFFSET 0.015417 -0.410728 -0.020192
				CHANNELS 3 Zrotation Yrotation Xrotation
				JOINT right_foot
				{
					OFFSET -0.038812 -0.058328 0.119049
					CHANNELS 3 Zrotation Yrotation Xrotation
					End Site
					{
						OFFSET 0.000000 0.000000 0.000000
					}
				}
			}
		}
	}
	JOINT spine_1
	{
		OFFSET -0.002763 0.109891 -0.027618
		CHANNELS 3 Zrotation Yrotation Xrotation
		JOINT spine_2
		{
			OFFSET 0.009448 0.131853 -0.005940
			CHANNELS 3 Zrotation Yrotation Xrotation
			JOINT spine_3
			{
				OFFSET -0.011330 0.052235 0.028447
				CHANNELS 3 Zrotation Yrotation Xrotation
				JOINT neck
				{
					OFFSET -0.012164 0.165167 -0.031615
					CHANNELS 3 Zrotation Yrotation Xrotation
					JOINT head
					{
						OFFSET 0.024783 0.160452 0.020737
						CHANNELS 3 Zrotation Yrotation Xrotation
						End Site
						{
							OFFSET 0.000000 0.000000 0.000000
						}
					}
				}
				JOINT left_collar
				{
					OFFSET 0.046364 0.084944 -0.007220
					CHANNELS 3 Zrotation Yrotation Xrotation
					JOINT left_shoulder
					{
						OFFSET 0.119239 0.057728 -0.015461
						CHANNELS 3 Zrotation Yrotation Xrotation
						JOINT left_elbow
						{
							OFFSET 0.254123 -0.072151 -0.042459
							CHANNELS 3 Zrotation Yrotation Xrotation
							JOINT left_wrist
							{
								OFFSET 0.251987 0.023221 -0.002472
								CHANNELS 3 Zrotation Yrotation Xrotation
								JOINT left_index_1
								{
									OFFSET 0.101902 -0.008688 0.019351
									CHANNELS 3 Zrotation Yrotation Xrotation
									JOINT left_index_2
									{
										OFFSET 0.030149 -0.011154 0.001151
										CHANNELS 3 Zrotation Yrotation Xrotation
										JOINT left_index_3
										{
											OFFSET 0.006504 -0.021577 -0.002433
											CHANNELS 3 Zrotation Yrotation Xrotation
											End Site
											{
												OFFSET 0.000000 0.000000 0.000000
											}
										}
									}
								}
								JOINT left_middle_1
								{
									OFFSET 0.109398 -0.006328 -0.003981
									CHANNELS 3 Zrotation Yrotation Xrotation
									JOINT left_middle_2
									{
										OFFSET 0.026472 -0.015218 -0.004641
										CHANNELS 3 Zrotation Yrotation Xrotation
										JOINT left_middle_3
										{
											OFFSET 0.005022 -0.023347 -0.001911
											CHANNELS 3 Zrotation Yrotation Xrotation
											End Site
											{
												OFFSET 0.000000 0.000000 0.000000
											}
										}
									}
								}
								JOINT left_pinky_1
								{
									OFFSET 0.084047 -0.014539 -0.043750
									CHANNELS 3 Zrotation Yrotation Xrotation
									JOINT left_pinky_2
									{
										OFFSET 0.012124 -0.014448 -0.005375
										CHANNELS 3 Zrotation Yrotation Xrotation
										JOINT left_pinky_3
										{
											OFFSET 0.003798 -0.018853 0.000167
											CHANNELS 3 Zrotation Yrotation Xrotation
											End Site
											{
												OFFSET 0.000000 0.000000 0.000000
											}
										}
									}
								}
								JOINT left_ring_1
								{
									OFFSET 0.097444 -0.009268 -0.027345
									CHANNELS 3 Zrotation Yrotation Xrotation
									JOINT left_ring_2
									{
										OFFSET 0.023561 -0.016057 -0.001895
										CHANNELS 3 Zrotation Yrotation Xrotation
										JOINT left_ring_3
										{
											OFFSET 0.004257 -0.023548 0.000814
											CHANNELS 3 Zrotation Yrotation Xrotation
											End Site
											{
												OFFSET 0.000000 0.000000 0.000000
											}
										}
									}
								}
								JOINT left_thumb_1
								{
									OFFSET 0.040636 -0.017977 0.025611
									CHANNELS 3 Zrotation Yrotation Xrotation
									JOINT left_thumb_2
									{
										OFFSET 0.021637 -0.017639 0.011623
										CHANNELS 3 Zrotation Yrotation Xrotation
										JOINT left_thumb_3
										{
											OFFSET 0.024002 -0.008356 0.006548
											CHANNELS 3 Zrotation Yrotation Xrotation
											End Site
											{
												OFFSET 0.000000 0.000000 0.000000
											}
										}
									}
								}
							}
						}
					}
				}
				JOINT right_collar
				{
					OFFSET -0.047695 0.084339 -0.013400
					CHANNELS 3 Zrotation Yrotation Xrotation
					JOINT right_shoulder
					{
						OFFSET -0.102578 0.053524 -0.012669
						CHANNELS 3 Zrotation Yrotation Xrotation
						JOINT right_elbow
						{
							OFFSET -0.271150 -0.036492 -0.026467
							CHANNELS 3 Zrotation Yrotation Xrotation
							JOINT right_wrist
							{
								OFFSET -0.249267 -0.004533 -0.015325
								CHANNELS 3 Zrotation Yrotation Xrotation
								JOINT right_index_1
								{
									OFFSET -0.099881 -0.011783 0.019600
									CHANNELS 3 Zrotation Yrotation Xrotation
									JOINT right_index_2
									{
										OFFSET -0.030148 -0.011154 0.001151
										CHANNELS 3 Zrotation Yrotation Xrotation
										JOINT right_index_3
										{
											OFFSET -0.006505 -0.021577 -0.002432
											CHANNELS 3 Zrotation Yrotation Xrotation
											End Site
											{
												OFFSET 0.000000 0.000000 0.000000
											}
										}
									}
								}
								JOINT right_middle_1
								{
									OFFSET -0.107376 -0.009422 -0.003734
									CHANNELS 3 Zrotation Yrotation Xrotation
									JOINT right_middle_2
									{
										OFFSET -0.026472 -0.015218 -0.004641
										CHANNELS 3 Zrotation Yrotation Xrotation
										JOINT right_middle_3
										{
											OFFSET -0.005022 -0.023347 -0.001911
											CHANNELS 3 Zrotation Yrotation Xrotation
											End Site
											{
												OFFSET 0.000000 0.000000 0.000000
											}
										}
									}
								}
								JOINT right_pinky_1
								{
									OFFSET -0.082027 -0.017634 -0.043503
									CHANNELS 3 Zrotation Yrotation Xrotation
									JOINT right_pinky_2
									{
										OFFSET -0.012123 -0.014448 -0.005374
										CHANNELS 3 Zrotation Yrotation Xrotation
										JOINT right_pinky_3
										{
											OFFSET -0.003798 -0.018852 0.000167
											CHANNELS 3 Zrotation Yrotation Xrotation
											End Site
											{
												OFFSET 0.000000 0.000000 0.000000
											}
										}
									}
								}
								JOINT right_ring_1
								{
									OFFSET -0.095423 -0.012362 -0.027099
									CHANNELS 3 Zrotation Yrotation Xrotation
									JOINT right_ring_2
									{
										OFFSET -0.023561 -0.016057 -0.001895
										CHANNELS 3 Zrotation Yrotation Xrotation
										JOINT right_ring_3
										{
											OFFSET -0.004257 -0.023548 0.000816
											CHANNELS 3 Zrotation Yrotation Xrotation
											End Site
											{
												OFFSET 0.000000 0.000000 0.000000
											}
										}
									}
								}
								JOINT right_thumb_1
								{
									OFFSET -0.038613 -0.021074 0.025861
									CHANNELS 3 Zrotation Yrotation Xrotation
									JOINT right_thumb_2
									{
										OFFSET -0.021636 -0.017639 0.011623
										CHANNELS 3 Zrotation Yrotation Xrotation
										JOINT right_thumb_3
										{
											OFFSET -0.024004 -0.008353 0.006547
											CHANNELS 3 Zrotation Yrotation Xrotation
											End Site
											{
												OFFSET 0.000000 0.000000 0.000000
											}
										}
									}
								}
							}
						}
					}
				}
			}
		}
	}
}
MOTION
Frames: 6
Frame Time: 0.050000
0.102259 0.930786 0.525902 3.106419 22.816933 8.138545 -35.345135 -0.901262 1.070018 30.869567 5.103702 -29.467440 43.032364 28.849275 107.641820 0.000000 0.000000 0.000000 25.788053 2.757858 -16.897513 -45.553212 -4.563331 -6.164836 63.920398 -24.235335 94.450191 0.000000 0.000000 0.000000 12.628795 -5.954019 26.882925 -29.626516 -16.557637 -55.782421 18.996432 15.952572 36.240179 -1.603046 0.066066 -34.792878 0.000000 0.000000 0.000000 134.434357 46.239174 18.969323 99.441026 21.995593 58.182123 -38.893629 60.397640 -29.564328 29.175078 0.222005 24.642683 5.914630 45.276378 16.519639 52.322213 -10.303627 34.805919 0.000000 0.000000 0.000000 14.192230 -1.886287 0.677297 -113.900627 53.238786 14.755010 0.000000 0.000000 0.000000 76.852907 -15.124554 -86.422429 33.256645 0.097193 -3.862101 0.000000 0.000000 0.000000 52.193446 -30.505506 -50.109589 44.673078 11.945435 -126.397106 0.000000 0.000000 0.000000 71.313794 44.420137 70.179842 -16.338133 -29.659723 -2.025544 0.000000 0.000000 0.000000 -120.602704 17.428025 31.665414 -58.615816 -24.046873 31.220200 108.959312 -11.929708 -11.662759 31.213037 18.582763 77.657810 48.806281 -34.020392 -9.358783 31.578671 -32.565448 13.087232 0.000000 0.000000 0.000000 70.214813 -6.510682 11.990271 76.144250 -14.790604 -22.478544 0.000000 0.000000 0.000000 -106.683706 -6.935948 -95.931021 -54.488215 14.636926 -109.791103 0.000000 0.000000 0.000000 -98.186527 69.607165 -103.834509 -14.490764 61.772204 -109.537558 0.000000 0.000000 0.000000 51.843336 -43.069311 -2.888662 -55.676854 7.804760 -39.437030 0.000000 0.000000 0.000000 
0.101788 0.931431 0.524582 2.439457 19.383176 6.287352 -35.872080 -0.897342 0.501706 32.983840 5.135449 -26.521622 43.659051 30.030169 108.360349 0.000000 0.000000 0.000000 26.196976 2.782375 -15.694711 -44.692076 -3.588022 -5.716208 63.135280 -23.599879 96.550637 0.000000 0.000000 0.000000 12.200138 -6.325416 29.307836 -28.048437 -15.513755 -56.346198 17.152637 14.582083 35.162718 -0.092149 1.000883 -35.366770 0.000000 0.000000 0.000000 136.288137 43.610968 22.527181 98.555336 21.932691 58.763012 -38.802682 59.872814 -29.293536 28.498372 1.884565 24.731113 5.646109 47.118003 16.991973 49.836833 -9.855570 36.318493 0.000000 0.000000 0.000000 10.356021 -0.168547 1.312302 -114.335216 48.505365 13.175453 0.000000 0.000000 0.000000 75.047531 -16.093497 -91.037620 31.851044 0.164677 -5.539736 0.000000 0.000000 0.000000 51.226631 -32.830974 -52.668423 39.070922 3.782880 -132.756978 0.000000 0.000000 0.000000 71.994809 44.662643 71.371623 -16.674359 -28.963291 -1.663547 0.000000 0.000000 0.000000 -122.298737 14.609602 29.470892 -57.189548 -24.938558 30.136819 107.658693 -10.867867 -11.242227 31.085676 16.023777 78.617413 54.669027 -28.366952 -14.725746 14.598123 -40.764212 30.836238 0.000000 0.000000 0.000000 67.681890 -9.127940 6.078327 73.298605 -19.201494 -18.859572 0.000000 0.000000 0.000000 -114.319392 -10.872747 -108.275403 -42.364001 31.172424 -107.069276 0.000000 0.000000 0.000000 -114.728791 64.183127 -119.754112 -8.423645 60.954175 -103.290580 0.000000 0.000000 0.000000 44.047632 -36.259068 -1.196878 -45.613908 7.628614 -32.847526 0.000000 0.000000 0.000000 
0.100374 0.931914 0.525902 5.049395 29.855116 7.173172 -36.166953 -0.518188 4.023426 28.699341 3.497630 -27.266474 44.158408 29.183389 97.697772 0.000000 0.000000 0.000000 23.535116 2.251818 -17.030540 -46.759844 -3.782336 -1.481699 68.449543 -24.263930 88.778635 0.000000 0.000000 0.000000 14.014920 -6.756525 26.484066 -32.871899 -16.517380 -52.067121 24.697013 24.118878 37.972959 -6.108906 -2.593844 -31.778371 0.000000 0.000000 0.000000 121.751947 58.529998 7.052610 97.995223 29.346630 61.529875 -44.253583 59.055255 -32.509723 27.067078 0.905397 27.271587 3.938978 48.632351 16.611449 54.294550 -9.929730 30.479475 0.000000 0.000000 0.000000 9.397346 4.380827 3.694689 -76.553301 67.198830 45.848248 0.000000 0.000000 0.000000 78.512123 -14.527354 -89.528504 36.367437 0.171583 -5.942264 0.000000 0.000000 0.000000 55.073571 -31.872386 -53.267033 48.115930 20.503245 -138.366015 0.000000 0.000000 0.000000 72.142025 45.406030 73.708127 -15.694895 -29.007084 -2.263568 0.000000 0.000000 0.000000 -110.974396 26.931884 38.610826 -61.055271 -19.010291 31.225096 107.824251 -20.962288 -17.390837 30.524104 16.581214 79.974782 52.890136 -32.183173 -13.360427 17.240248 -27.791043 18.870850 0.000000 0.000000 0.000000 71.519483 -2.320320 9.258144 90.951419 -25.552644 -25.367758 0.000000 0.000000 0.000000 -102.756363 -11.000089 -99.813281 -33.876481 34.287293 -103.391550 0.000000 0.000000 0.000000 -101.419202 55.241439 -108.653914 8.079999 73.602848 -88.065021 0.000000 0.000000 0.000000 48.052907 -41.773956 -2.187784 -45.272114 12.440303 -34.368255 0.000000 0.000000 0.000000 
0.099903 0.932237 0.528542 6.599956 33.790521 8.619016 -36.340287 -1.069956 3.847965 26.499519 2.585926 -24.843855 44.710909 30.281221 90.241407 0.000000 0.000000 0.000000 22.379936 2.033848 -17.654328 -47.617389 -4.253616 -0.515356 70.017932 -24.484290 85.951071 0.000000 0.000000 0.000000 14.273807 -6.403447 24.530097 -34.703070 -16.716475 -50.077623 26.077103 24.995490 37.649553 -8.053615 -3.411324 -30.031520 0.000000 0.000000 0.000000 111.703153 62.453978 -0.230076 97.350069 34.179593 64.377998 -52.681364 56.090612 -36.423959 27.560569 0.895787 35.028583 -1.926640 46.352955 12.395972 48.316037 -7.183288 30.444140 0.000000 0.000000 0.000000 8.169061 3.325504 2.791116 -85.744470 57.716638 29.942164 0.000000 0.000000 0.000000 81.591588 -11.244672 -86.512059 35.252271 -0.313285 -7.055887 0.000000 0.000000 0.000000 54.659934 -27.842956 -47.970714 49.631755 5.033603 -146.696441 0.000000 0.000000 0.000000 62.476591 48.014442 68.684131 -12.919828 -29.153293 -3.922236 0.000000 0.000000 0.000000 -107.978322 29.381498 41.570515 -61.518265 -17.173422 30.710326 108.455627 -23.007584 -19.080600 29.210085 16.439324 81.744710 63.810764 -33.507318 -20.469209 11.930515 -36.808570 31.198982 0.000000 0.000000 0.000000 75.945774 -7.380005 14.532228 95.904326 -24.870744 -32.160954 0.000000 0.000000 0.000000 -106.568415 -11.157835 -92.247917 -56.876783 7.994048 -119.568263 0.000000 0.000000 0.000000 -51.662484 57.943216 -53.972911 -49.070428 57.801088 -144.064676 0.000000 0.000000 0.000000 57.626229 -42.515715 -7.542904 -54.756370 13.306191 -42.057583 0.000000 0.000000 0.000000 
0.098490 0.932398 0.529861 6.418376 37.197323 8.089148 -36.267391 -1.183610 4.457012 27.100486 1.880746 -22.179896 43.140842 31.141608 83.159641 0.000000 0.000000 0.000000 22.153120 1.831210 -17.973694 -47.347542 -3.650087 1.735026 72.195977 -23.862337 83.092599 0.000000 0.000000 0.000000 15.980140 -7.321279 24.546548 -34.664174 -16.979584 -49.392251 26.466746 28.284048 38.008717 -9.206816 -4.295713 -28.921391 0.000000 0.000000 0.000000 103.081176 63.889826 -9.872500 97.492682 35.951831 64.278415 -51.099028 56.680337 -36.113552 27.167629 0.908871 35.788573 -1.289604 44.902793 12.391418 46.426007 -6.122118 33.760506 0.000000 0.000000 0.000000 8.837730 3.980999 3.199301 -86.346981 59.636886 29.818355 0.000000 0.000000 0.000000 82.612403 -10.907297 -84.118764 34.920306 -0.361020 -8.032175 0.000000 0.000000 0.000000 56.731691 -27.728321 -49.579072 55.317219 13.895377 -146.665516 0.000000 0.000000 0.000000 63.645053 48.180983 69.951968 -11.420070 -30.505041 -5.122940 0.000000 0.000000 0.000000 -102.400855 31.782369 45.235806 -63.220221 -15.721429 31.601420 108.244718 -27.140489 -22.197712 27.357681 14.384425 81.255437 50.783283 -25.355831 -14.878476 0.102913 -30.481267 33.351209 0.000000 0.000000 0.000000 40.794226 2.642029 0.446419 79.772090 -17.841042 -2.662117 0.000000 0.000000 0.000000 -87.485030 -4.611875 -78.153300 -61.944831 8.473810 -126.110832 0.000000 0.000000 0.000000 -33.894086 38.923855 -43.567448 -70.022630 67.263883 -165.985790 0.000000 0.000000 0.000000 42.888265 -44.971813 -0.059104 -33.886139 21.816957 -32.311284 0.000000 0.000000 0.000000 
0.097548 0.931592 0.535141 6.391785 36.697066 7.399200 -36.506474 -1.262624 4.284460 27.890130 1.503370 -19.210509 41.830405 32.323035 79.197870 0.000000 0.000000 0.000000 21.762877 1.835331 -17.477957 -46.452605 -2.946011 2.593114 73.467544 -23.570867 83.042331 0.000000 0.000000 0.000000 16.065446 -7.111308 24.128449 -34.300789 -16.216215 -48.941313 25.873340 28.331866 37.995387 -9.604848 -4.565420 -29.176972 0.000000 0.000000 0.000000 102.322861 64.278351 -9.829221 96.815478 36.996223 64.892961 -51.739297 55.913932 -36.070002 26.450285 0.854522 36.638873 -3.988166 46.434069 11.327803 48.750786 -6.899869 31.032217 0.000000 0.000000 0.000000 7.217645 4.839519 3.351439 -77.706577 59.809153 35.571811 0.000000 0.000000 0.000000 82.591074 -10.680872 -86.981676 35.478300 -0.392554 -9.995297 0.000000 0.000000 0.000000 56.446409 -28.530501 -50.237879 48.406850 -0.976050 -151.724032 0.000000 0.000000 0.000000 63.392175 48.608065 69.884909 -12.843169 -29.102797 -4.006385 0.000000 0.000000 0.000000 -103.109813 31.588638 45.379340 -62.145851 -15.639399 30.558384 106.654986 -27.496971 -21.836606 26.658161 10.677066 78.269346 45.055059 -19.650269 -12.628896 -3.344918 -21.639611 27.822786 0.000000 0.000000 0.000000 29.560731 5.508884 -3.238995 81.135504 -22.297991 -0.328489 0.000000 0.000000 0.000000 -89.484325 -9.871802 -74.443602 -52.511718 26.325123 -129.388086 0.000000 0.000000 0.000000 -37.572415 28.978157 -44.842948 -113.786769 87.771309 146.852711 0.000000 0.000000 0.000000 36.517884 -42.491933 4.032254 -26.594670 18.809667 -25.095764 0.000000 0.000000 0.000000 
